HIERARCHY
ROOT Hips
{
  OFFSET -10.0563 7.73376 -472.55
  CHANNELS 6 Xposition Yposition Zposition Zrotation Xrotation Yrotation
  JOINT Spine
  {
    OFFSET 0 0 0
    CHANNELS 3 Zrotation Xrotation Yrotation
    JOINT Spine1
    {
      OFFSET 19 0 0
      CHANNELS 3 Zrotation Xrotation Yrotation
      JOINT Neck
      {
        OFFSET 22.5 0.6 0
        CHANNELS 3 Zrotation Xrotation Yrotation
        JOINT Head
        {
          OFFSET 14 0.0308777 0
          CHANNELS 3 Zrotation Xrotation Yrotation
          End Site
          {
            OFFSET 17 0 0
          }
        }
      }
      JOINT LeftShoulder
      {
        OFFSET 19.8 3.7 4.3
        CHANNELS 3 Zrotation Xrotation Yrotation
        JOINT LeftArm
        {
          OFFSET 8 0 0
          CHANNELS 3 Zrotation Xrotation Yrotation
          JOINT LeftForeArm
          {
            OFFSET 15.2 0 0
            CHANNELS 3 Zrotation Xrotation Yrotation
            JOINT LeftHand
            {
              OFFSET 17.8 0 0
              CHANNELS 3 Zrotation Xrotation Yrotation
              End Site
              {
                OFFSET 7.2 0 0
              }
            }
          }
        }
      }
      JOINT RightShoulder
      {
        OFFSET 19.8 3.7 -4.3
        CHANNELS 3 Zrotation Xrotation Yrotation
        JOINT RightArm
        {
          OFFSET 8 0 0.151654
          CHANNELS 3 Zrotation Xrotation Yrotation
          JOINT RightForeArm
          {
            OFFSET 15.2 0 0
            CHANNELS 3 Zrotation Xrotation Yrotation
            JOINT RightHand
            {
              OFFSET 17.8 0 0
              CHANNELS 3 Zrotation Xrotation Yrotation
              End Site
              {
                OFFSET 7.2 0 0
              }
            }
          }
        }
      }
    }
  }
  JOINT LeftUpLeg
  {
    OFFSET 5.98425 -7.666 4.78879
    CHANNELS 3 Zrotation Xrotation Yrotation
    JOINT LeftLeg
    {
      OFFSET 16 0 0
      CHANNELS 3 Zrotation Xrotation Yrotation
      JOINT LeftFoot
      {
        OFFSET 18 0 0
        CHANNELS 3 Zrotation Xrotation Yrotation
        End Site
        {
          OFFSET 0 -10.8 0
        }
      }
    }
  }
  JOINT RightUpLeg
  {
    OFFSET 5.98425 -7.66598 -4.78879
    CHANNELS 3 Zrotation Xrotation Yrotation
    JOINT RightLeg
    {
      OFFSET 16 0 0
      CHANNELS 3 Zrotation Xrotation Yrotation
      JOINT RightFoot
      {
        OFFSET 18 0 0
        CHANNELS 3 Zrotation Xrotation Yrotation
        End Site
        {
          OFFSET 0 -10.8 0
        }
      }
    }
  }
  JOINT Tail
  {
    OFFSET 6.83696 -0.722574 0
    CHANNELS 3 Zrotation Xrotation Yrotation
    JOINT Tail1
    {
      OFFSET 12 0 0
      CHANNELS 3 Zrotation Xrotation Yrotation
      End Site
      {
        OFFSET 12 0 0
      }
    }
  }
}
MOTION
Frames:	12
Frame Time:	0.0166667
-23.1004 7.59943 -513.099 -144.668 -59.9652 -50.6447 -110.109 -2.69608 -5.13799 -5.78639 1.01266 0.359393 0.58745 -24.3871 8.43535 -91.6971 62.8692 96.0851 -109.422 -34.74 -139.181 68.8257 -69.7496 -175.803 -77.2092 11.0701 0.394239 5.35955 0.76774 -12.784 75.9492 -30.1248 47.2138 106.053 -73.313 -0.966773 -77.9161 -12.8738 1.37642 10.3757 0.0794341 -1.67713 -83.8892 47.775 -29.907 158.897 55.9869 -1.97851 -36.1257 -3.03355 8.43132 -141.726 -71.786 -13.6167 -11.8396 -69.1946 -164.451 -4.77931 -6.32992 -22.3014 60.1259 9.61769 52.6568 14.1782 -49.8522 11.7463 
-23.1489 7.76255 -513.053 -143.151 -60.6051 -49.5858 -110.933 -2.96888 -5.56774 -5.72989 0.976946 0.479133 0.646495 -24.8439 8.83591 -92.0748 62.0331 96.5096 -110.117 -35.6011 -139.332 68.7633 -69.8002 -174.502 -76.4193 11.2657 0.16614 4.52982 0.842148 -12.8348 75.9285 -30.1491 47.1959 105.875 -73.4247 -1.13426 -77.6699 -12.975 1.34701 9.91339 0.105548 -1.51441 -85.3432 46.8062 -29.5424 159.143 54.9155 -2.10309 -36.0323 -3.03217 8.60598 -148.109 -72.0168 -18.3591 -11.3659 -69.2816 -164.453 -4.12138 -6.63743 -23.0941 58.5825 9.8349 52.9905 14.4236 -50.3448 11.955 
-23.0095 7.51325 -513.154 -145.149 -58.6063 -51.3395 -108.678 -3.007 -5.4001 -6.20441 1.11243 -0.138061 0.591609 -24.2756 8.38478 -92.4367 62.0332 97.1638 -109.992 -35.4163 -139.366 68.2023 -69.2489 -175.013 -76.7284 10.0044 0.053292 6.6853 0.718383 -12.4448 75.9491 -30.0475 47.0347 106.055 -73.4703 -1.11174 -78.196 -12.7726 1.4543 10.8106 0.0471097 -1.41448 -82.5928 45.1936 -29.3925 159.035 52.9487 -2.12098 -36.6938 -3.05444 7.36969 -143.233 -71.1636 -15.087 -12.3885 -68.6694 -164.587 -2.89366 -6.77931 -22.771 61.2707 9.5537 53.3329 14.5429 -49.7779 12.1538 
-23.0144 7.59479 -513.163 -144.732 -58.8577 -50.8788 -108.862 -2.97165 -5.37737 -6.27048 1.10894 -0.0912598 0.164267 -22.8962 7.8125 -91.7518 63.5119 97.146 -109.945 -35.3802 -139.314 68.5004 -68.9248 -174.23 -76.7565 9.66546 -0.0393063 6.74473 0.725624 -12.569 75.9105 -30.0646 46.9357 105.644 -73.3818 -1.78969 -78.0355 -12.8176 1.58905 10.7532 0.0409526 -1.28337 -82.2625 45.8517 -30.4294 158.925 55.141 -2.12019 -36.5884 -3.04637 7.66702 -141.976 -70.6994 -13.7431 -12.3157 -68.9803 -164.457 -2.87534 -6.72253 -22.5444 60.6123 9.5412 53.2551 14.8166 -50.0756 12.4066 
-22.9947 7.57603 -513.135 -144.446 -59.0459 -50.6727 -108.99 -2.96355 -5.42997 -6.46904 1.13166 -0.00570487 0.0785448 -22.6906 7.57911 -91.8046 63.7043 97.1803 -110.001 -35.3804 -139.465 67.877 -68.904 -174.496 -76.9158 9.87837 -0.116911 6.65139 0.722061 -12.658 75.8816 -30.1241 46.9701 107.12 -73.3013 -0.251976 -78.3028 -13.0961 1.43373 10.4733 0.09933 -1.71806 -82.9478 45.9338 -30.1386 159.097 54.6112 -2.10709 -36.4719 -3.04739 7.82412 -147.693 -71.2533 -18.6594 -10.8973 -69.8593 -163.977 -2.68854 -7.09459 -23.7531 60.3806 9.52356 53.3697 14.7305 -50.083 12.3189 
-23.0418 7.73362 -513.086 -142.817 -59.7301 -49.5237 -110.011 -3.20857 -5.97959 -6.36509 1.14168 0.352747 -0.0268666 -22.637 7.43624 -92.169 63.6349 97.3549 -109.998 -35.388 -139.442 68.4442 -69.0391 -173.958 -76.457 9.64464 -0.118242 6.46312 0.748828 -13.0516 75.8801 -30.1359 46.9921 106.812 -73.3766 -0.334592 -77.9565 -13.3033 1.33837 9.91465 0.139565 -1.76829 -83.6262 45.6203 -30.4585 159.112 54.4518 -2.17055 -36.6786 -3.06413 7.87277 -151.84 -71.2759 -21.3944 -10.8006 -69.7173 -164.058 -2.55005 -7.21039 -24.099 58.7319 9.74659 53.6711 15.053 -50.5804 12.6065 
-23.0385 7.70943 -513.126 -143.357 -59.4191 -49.9494 -109.69 -3.21925 -5.92534 -6.23981 1.11471 0.322309 0.00343936 -22.5978 7.45308 -91.8792 63.8647 97.1305 -109.974 -35.3899 -139.372 68.7463 -68.8952 -173.667 -76.4451 9.60829 -0.147819 6.54612 0.748188 -12.9359 75.9011 -30.087 46.9541 105.8 -73.2828 -1.71841 -77.8681 -13.0903 1.61102 10.2927 0.063204 -1.31869 -83.2585 45.4618 -30.2998 159.017 54.105 -2.16097 -36.4269 -3.03353 7.79255 -147.103 -70.9335 -17.5137 -11.6692 -69.2507 -164.274 -2.70213 -6.95165 -23.2623 59.2807 9.7242 53.5813 15.0409 -50.4467 12.5955 
-23.0476 7.71423 -513.131 -143.458 -59.4061 -50.046 -109.664 -3.21915 -5.93513 -6.21128 1.10881 0.375809 -0.00453372 -22.5971 7.3941 -91.5177 64.0203 96.9191 -109.979 -35.3849 -139.395 68.7607 -68.7952 -173.547 -76.4424 9.71065 -0.145841 6.35937 0.749737 -12.8051 75.9205 -30.063 46.9681 105.504 -73.1879 -2.11353 -77.7767 -13.0319 1.66153 10.2767 0.0491942 -1.2116 -83.166 45.3887 -30.2812 158.957 54.0892 -2.1581 -36.4024 -3.02869 7.73924 -146.009 -70.8625 -16.71 -11.864 -69.1395 -164.302 -2.87068 -6.90388 -23.1859 59.3849 9.75161 53.5311 14.9825 -50.4028 12.5762 
-23.0641 7.68921 -513.109 -143.474 -59.5383 -50.1306 -109.827 -3.22011 -5.99764 -6.18421 1.10282 0.533568 0.035664 -22.6692 7.21754 -91.3762 63.7917 97.0179 -109.946 -35.3079 -139.463 68.8157 -68.8554 -173.628 -76.4694 9.69796 -0.0932763 6.3752 0.732924 -12.7862 75.9024 -30.1297 47.0573 106.193 -72.9013 -1.68851 -77.815 -13.414 1.67359 9.98262 0.0962027 -1.80119 -83.3465 45.5438 -30.2289 159.036 54.426 -2.15529 -36.6021 -3.0541 7.81645 -149.904 -71.4229 -20.2364 -11.1201 -69.4438 -164.149 -2.91186 -7.10823 -23.958 59.3429 9.83988 53.5078 14.9341 -50.3611 12.5229 
-23.0747 7.6644 -513.091 -143.583 -59.6062 -50.244 -110.014 -3.20442 -5.97581 -6.00333 1.07958 0.564945 0.0571031 -22.6717 7.23948 -91.147 64.1012 96.6633 -109.986 -35.3407 -139.505 69.1383 -69.0621 -173.457 -76.4507 9.4327 -0.0640918 6.56602 0.74581 -13.1064 75.9088 -30.1317 47.085 106.212 -72.95 -1.45338 -77.8205 -13.3464 1.5958 9.97638 0.103172 -1.81082 -83.4599 45.7084 -30.1376 159.085 54.6223 -2.15114 -36.74 -3.07131 7.87885 -151.665 -71.7366 -21.8031 -10.9406 -69.4344 -164.187 -2.91589 -7.1687 -24.198 59.4696 9.87211 53.4469 14.851 -50.2401 12.447 
-23.1247 7.67822 -513.093 -143.892 -59.4644 -50.5008 -110.019 -3.21301 -5.99659 -5.70342 1.07993 0.571012 0.0953893 -22.5781 7.26789 -91.1148 64.2906 96.5438 -109.971 -35.3371 -139.471 69.6594 -69.0977 -173.245 -76.2544 9.43193 -0.0349419 6.53386 0.750987 -13.0299 75.9399 -30.0671 47.0472 105.04 -73.0426 -2.51439 -77.536 -13.223 1.68374 10.0542 0.0789543 -1.50642 -82.7869 45.7138 -30.5241 158.964 54.8099 -2.16506 -36.6216 -3.05001 7.82252 -148.283 -71.5697 -18.9081 -12.2651 -68.385 -164.794 -2.84624 -6.9478 -23.4109 59.7453 9.91369 53.3269 14.9064 -50.1672 12.5072 
-23.1412 7.63699 -513.114 -144.627 -59.1428 -51.1118 -109.619 -3.16929 -5.89488 -5.65715 1.08714 0.509938 0.143876 -22.4383 7.21414 -90.9219 64.5507 96.3863 -109.951 -35.3152 -139.461 69.7195 -69.0687 -173.405 -76.1984 9.80623 -0.0340075 6.42209 0.724538 -12.5609 75.9515 -29.9982 46.9289 105.065 -73.1209 -2.04061 -77.6378 -13.0815 1.53601 10.1963 0.101835 -1.58343 -82.218 45.8333 -30.7004 158.913 54.9526 -2.15158 -36.1808 -3.00796 7.90046 -145.297 -71.4877 -16.8486 -12.6872 -68.1163 -164.908 -3.03706 -6.81684 -23.0538 60.4148 9.92918 53.1958 14.8373 -50.0088 12.4618 
